<?xml version="1.0" encoding="UTF-8"?>
<!DOCTYPE svg PUBLIC "-//W3C//DTD SVG 1.1//EN" "http://www.w3.org/Graphics/SVG/1.1/DTD/svg11.dtd">
<!-- Creator: CorelDRAW X7 -->
<svg xmlns="http://www.w3.org/2000/svg" xml:space="preserve" width="100%" version="1.1" style="shape-rendering:geometricPrecision; text-rendering:geometricPrecision; image-rendering:optimizeQuality; fill-rule:evenodd; clip-rule:evenodd"
viewBox="0 0 8467 4233"
 xmlns:xlink="http://www.w3.org/1999/xlink">
 <defs>
  <style type="text/css">
   <![CDATA[
    .fil0 {fill:#2B2A29;fill-rule:nonzero}
   ]]>
  </style>
 </defs>
 <g id="Warstwa_x0020_1">
  <metadata id="CorelCorpID_0Corel-Layer"/>
  <path class="fil0" d="M2196 1470c-54,-83 -119,-145 -197,-188 -78,-43 -166,-64 -264,-64 -163,0 -296,55 -398,166 -103,110 -154,253 -154,428 0,79 14,153 41,223 27,69 67,131 119,185 53,53 112,93 177,120 66,27 137,40 215,40 148,0 268,-44 360,-131 93,-86 141,-200 143,-341l-454 0 0 -103 585 0 0 15c0,209 -58,374 -172,492 -115,119 -272,178 -473,178 -199,0 -361,-63 -484,-190 -124,-127 -186,-294 -186,-500 0,-95 16,-184 47,-269 31,-84 76,-157 135,-219 63,-68 135,-119 215,-152 80,-34 170,-51 268,-51 134,0 248,25 343,73 96,48 169,119 221,213l-87 75zm1065 913c78,0 152,-14 222,-43 69,-28 132,-70 187,-126 55,-55 97,-119 126,-190 29,-71 43,-146 43,-224 0,-79 -14,-154 -43,-224 -28,-71 -70,-134 -126,-191 -54,-55 -116,-97 -186,-125 -70,-29 -144,-44 -223,-44 -78,0 -151,15 -220,44 -69,28 -131,70 -187,125 -55,57 -97,121 -126,191 -29,69 -43,144 -43,224 0,79 14,154 43,224 29,71 71,134 126,190 55,56 117,98 185,127 69,28 143,42 222,42zm705 -583c0,93 -17,181 -53,265 -35,83 -86,158 -152,223 -68,66 -145,116 -230,151 -85,34 -175,51 -270,51 -94,0 -184,-17 -269,-51 -85,-35 -161,-85 -228,-151 -67,-67 -118,-141 -153,-224 -35,-83 -53,-171 -53,-264 0,-94 18,-183 53,-267 35,-83 86,-158 153,-225 66,-65 141,-115 226,-148 84,-34 175,-51 271,-51 98,0 188,17 273,51 85,34 161,83 227,148 67,67 118,142 153,225 35,84 52,173 52,267zm866 707l-462 -1057 -100 1005 -123 0 179 -1371 504 1171 523 -1171 169 1371 -123 0 -98 -1005 -469 1057zm939 -52l0 -1316 651 0 0 112 -532 0 0 413 532 0 0 112 -532 0 0 567 532 0 0 112 -651 0zm803 0l782 -1207 -668 0 0 -109 872 0 -779 1206 700 0 0 110 -907 0z"/>
  <g id="_984362672">
   <path class="fil0" d="M759 2828l55 -89 57 -4 -60 93 109 0c1,0 2,0 2,0 1,0 1,1 2,2 1,1 1,2 1,3 0,1 0,3 -1,4 -1,1 -2,2 -4,2l-115 0c-6,11 -18,29 -34,54 -16,25 -33,51 -51,80 -2,3 -4,6 -6,8 -2,3 -3,5 -4,8 -21,33 -40,64 -56,93 -17,30 -25,50 -25,61 0,4 1,8 4,10 3,3 8,4 14,4 14,0 29,-6 45,-17 17,-12 35,-28 56,-49 24,-23 39,-39 45,-48 6,-9 10,-13 13,-13 2,0 3,1 3,1 1,1 1,3 1,5 0,1 -3,5 -8,12 -6,6 -13,14 -20,23 -2,0 -3,1 -4,2 0,1 -1,2 -2,3 -3,3 -6,6 -8,9 -3,2 -5,5 -8,7 -28,28 -51,48 -69,59 -18,11 -33,17 -46,17 -15,-1 -26,-5 -32,-14 -7,-8 -10,-17 -12,-27 0,0 0,-1 0,-2 0,-1 0,-2 0,-2 0,-5 1,-10 1,-15 1,-5 2,-10 2,-14 5,-21 15,-43 29,-66 14,-23 32,-50 54,-81l-1 -2c-3,2 -5,5 -7,7 -2,3 -4,5 -6,8 -1,0 -2,1 -2,2 -1,0 -1,1 -1,2 -6,7 -13,13 -19,20 -6,7 -13,16 -22,26 -2,2 -4,4 -7,8 -3,3 -6,7 -9,10 0,0 -1,0 -1,1 0,0 -1,1 -3,4 -2,2 -5,6 -9,10 -4,4 -6,7 -7,7 -1,0 -2,-1 -3,-1 -1,-1 -2,-2 -2,-3 0,-2 3,-5 7,-10 4,-5 15,-18 33,-38 9,-11 21,-25 36,-42 15,-17 30,-36 46,-56 5,-7 10,-14 15,-20 5,-7 10,-13 15,-20 3,-4 5,-7 7,-11 3,-3 5,-7 8,-10l-33 0c-2,0 -4,-1 -4,-2 -1,-1 -1,-3 -1,-4 0,0 0,-1 0,-2 1,-1 1,-2 2,-2 0,0 1,-1 1,-1 0,0 14,0 39,0zm62 334l-58 6c25,-45 51,-89 77,-131 26,-41 52,-82 78,-121l-1 -1c-5,4 -9,9 -13,14 -4,4 -8,9 -11,14 -1,0 -1,0 -2,1 0,1 -2,3 -5,7 -4,4 -9,10 -16,19 -6,8 -15,18 -25,29 -19,19 -30,32 -35,38 -4,5 -7,8 -8,9 -1,0 -1,0 -2,0 0,0 -1,-1 -2,-2 0,0 -1,-2 -1,-4 0,-3 15,-21 44,-52 30,-30 62,-70 97,-120 9,-12 17,-25 26,-38 8,-13 17,-26 25,-40l100 -173 57 -7c-10,18 -29,49 -56,96 -28,47 -58,96 -89,148 -25,41 -49,81 -71,119 -23,39 -42,71 -56,96l2 2c44,-51 83,-91 116,-119 32,-27 57,-41 73,-41 13,0 23,5 28,15 6,9 9,21 9,33 0,11 -5,24 -13,39 -9,15 -19,31 -30,46 -1,2 -3,4 -4,6 -2,1 -3,3 -4,5 -13,17 -25,34 -35,50 -11,15 -16,28 -16,39 0,3 1,6 4,9 2,2 5,4 10,4 0,0 1,0 1,0 0,0 1,0 2,0 14,-1 29,-9 44,-21 16,-13 37,-33 62,-59 2,-2 5,-5 7,-7 2,-3 4,-5 7,-8 8,-9 15,-17 21,-25 6,-7 10,-11 12,-11 1,0 2,1 3,2 1,1 2,2 2,3 0,1 -5,7 -14,19 -9,11 -20,23 -33,36 -33,35 -58,58 -76,68 -17,9 -32,14 -43,14 -9,0 -18,-4 -25,-10 -8,-7 -12,-21 -12,-41 0,-20 5,-40 16,-58 10,-18 22,-35 35,-50 13,-16 25,-30 35,-42 11,-13 16,-24 16,-33 0,-3 -1,-6 -3,-8 -2,-2 -4,-3 -5,-4 -1,0 -2,0 -2,0 -11,0 -28,8 -49,25 -22,17 -44,38 -68,62 -6,6 -12,12 -19,19 -6,7 -12,14 -18,21 -21,22 -40,44 -56,66 -17,21 -28,37 -33,47zm578 -207c0,22 -11,41 -33,57 -22,16 -46,30 -73,40 -16,6 -31,12 -46,16 -15,4 -28,7 -38,9 -1,5 -2,10 -2,16 -1,5 -2,10 -2,15 0,18 3,30 9,37 6,7 16,11 30,12 12,0 30,-5 53,-15 23,-11 48,-31 76,-58 18,-19 30,-32 37,-41 6,-9 11,-13 12,-13 2,0 3,1 4,1 1,1 1,3 1,5 0,1 -4,6 -11,15 -7,9 -16,19 -26,29 -2,2 -4,4 -5,6 -2,1 -4,3 -5,5 -3,3 -6,6 -9,8 -3,3 -5,5 -8,8 -13,12 -26,22 -38,31 -12,8 -24,14 -35,19 -8,3 -17,6 -26,8 -8,2 -17,3 -26,3 -25,0 -42,-10 -54,-28 -12,-19 -18,-40 -20,-63 0,-1 0,-2 0,-3 0,-2 0,-3 0,-4 0,-4 1,-7 1,-10 0,-3 1,-5 1,-8 0,-2 0,-4 1,-6 0,-1 0,-2 0,-3 0,-1 0,-1 0,-1 0,-1 0,-1 0,-1 -1,0 -1,0 -1,1 0,0 -1,0 -1,1 0,0 -1,0 -1,1 0,0 0,0 0,0 -2,-1 -2,-1 -2,-2 -1,0 -1,0 -2,0 0,-1 0,-1 0,-2 -1,-1 -1,-2 -1,-3 0,0 2,-2 5,-6 3,-4 7,-9 11,-13 0,-1 1,-1 1,-1 0,-1 1,-1 1,-1 3,-3 6,-7 9,-10 3,-3 5,-5 7,-7 12,-13 25,-24 38,-34 12,-10 25,-19 38,-27 15,-9 29,-16 43,-20 15,-5 28,-7 41,-7 14,0 26,4 34,12 8,9 12,19 12,32zm-46 -33c-7,0 -15,2 -24,6 -9,4 -18,10 -28,17 -11,9 -22,19 -32,30 -11,11 -20,23 -29,36 -6,10 -12,19 -17,29 -5,9 -9,18 -10,26 8,-1 17,-3 26,-5 10,-3 19,-6 29,-11 26,-10 50,-25 71,-45 22,-20 33,-41 33,-66 0,-6 -2,-10 -5,-13 -3,-3 -8,-4 -14,-4zm399 7l-110 220c19,-1 41,-9 63,-23 23,-15 48,-36 73,-64 10,-12 17,-19 20,-23 3,-4 5,-7 7,-8 1,0 1,0 2,0 1,0 2,0 3,1 1,1 2,2 2,4 0,1 -3,5 -9,12 -5,7 -12,15 -19,23 -1,0 -2,1 -3,2 0,1 -1,2 -3,2 -1,3 -4,5 -6,8 -3,2 -5,4 -7,6 -19,20 -39,37 -62,50 -22,14 -45,22 -69,26l-132 247 -56 7 143 -260c-4,-3 -7,-7 -9,-12 -1,-5 -2,-10 -2,-15 0,-9 2,-16 7,-21 5,-5 11,-8 19,-8 2,0 4,0 7,1 2,0 3,1 5,2l106 -190 -2 -1c-13,11 -25,22 -34,31 -9,10 -17,19 -25,29 -3,3 -6,7 -9,10 -3,3 -6,6 -9,10 -14,15 -24,27 -31,36 -7,8 -11,13 -13,13 -1,0 -2,0 -3,-1 0,-1 -1,-1 -2,-2 0,0 0,-1 0,-1 0,-1 0,-1 0,-2 0,0 6,-7 16,-19 11,-13 31,-35 60,-67 16,-18 29,-32 39,-40 9,-9 17,-17 24,-23 4,-3 7,-7 10,-10 3,-3 5,-8 8,-13 0,0 1,-1 1,-2 0,-1 1,-2 1,-2 8,-15 19,-34 32,-56 13,-23 27,-46 43,-70 17,-25 35,-49 54,-72 18,-23 38,-42 57,-56 11,-8 21,-15 32,-19 10,-4 20,-6 30,-6 13,0 21,3 27,11 5,7 7,18 7,31 0,45 -28,92 -86,141 -57,49 -123,104 -197,163zm9 -23l2 2c13,-12 30,-26 51,-42 21,-16 42,-34 64,-52 21,-18 42,-37 61,-57 20,-19 37,-39 50,-59 10,-14 18,-28 23,-42 6,-14 9,-28 9,-41 0,-7 -2,-13 -7,-16 -4,-4 -11,-5 -19,-5 -21,0 -42,11 -63,33 -22,22 -44,51 -66,86 -14,23 -28,48 -43,74 -14,27 -29,54 -43,82 -3,6 -7,13 -10,19 -3,6 -6,12 -9,18zm147 9l58 -4c-55,91 -91,149 -106,174 -15,25 -22,42 -22,52 0,8 1,13 4,15 3,3 7,4 11,5 1,0 2,0 2,0 8,0 16,-3 25,-7 9,-5 19,-10 28,-17 7,-5 13,-10 19,-16 6,-5 12,-10 18,-16 2,-2 5,-4 7,-7 2,-2 4,-4 6,-6 2,-2 5,-4 7,-7 2,-2 4,-4 7,-7 0,-1 1,-2 2,-3 1,-1 2,-2 3,-3 9,-10 18,-20 25,-28 8,-9 12,-13 12,-13 1,0 3,1 4,1 1,1 2,2 2,4 0,1 -5,7 -14,18 -9,11 -23,26 -43,47 -22,23 -43,41 -62,53 -18,12 -34,18 -47,18 -14,0 -25,-5 -33,-14 -7,-9 -11,-21 -11,-34 0,-2 0,-4 0,-5 0,-2 0,-4 1,-5 2,-20 8,-40 18,-59 11,-20 22,-38 35,-56 6,-9 12,-17 18,-25 5,-7 11,-15 16,-22l-2 -2c-6,6 -15,15 -27,28 -12,13 -30,32 -52,57 -3,4 -6,7 -8,9 -1,1 -2,2 -3,3 0,0 -1,0 -1,0 -1,0 -1,0 -2,0 0,0 -1,-1 -1,-2 -1,-1 -1,-2 -1,-4 0,-1 1,-3 5,-7 3,-4 11,-12 22,-26 5,-5 11,-11 16,-17 6,-7 11,-13 18,-20 9,-10 18,-19 26,-29 9,-9 16,-17 20,-23zm90 -150c0,-2 0,-3 0,-4 0,-1 1,-2 1,-4 2,-6 6,-13 11,-19 5,-5 12,-8 21,-8 7,0 12,2 16,7 3,4 5,10 5,17 0,1 0,2 0,3 0,2 0,3 -1,4 -2,7 -5,13 -10,19 -6,6 -13,9 -21,9 -6,0 -11,-3 -15,-7 -5,-5 -7,-10 -7,-17zm84 397l-62 6c4,-8 13,-22 28,-42 14,-20 29,-42 45,-65 0,-2 1,-3 2,-4 1,-1 2,-3 3,-4 18,-26 34,-50 48,-72 15,-23 22,-38 22,-45 0,-5 -2,-9 -4,-11 -3,-2 -6,-3 -10,-3 -1,0 -1,0 -2,0 -1,0 -4,0 -10,0 -6,1 -17,6 -31,17 -14,12 -32,29 -55,54 -20,22 -32,35 -37,41 -4,6 -7,9 -8,10 -1,0 -2,0 -2,0 -1,0 -2,0 -3,-1 -1,-1 -1,-3 -1,-5 0,0 2,-3 6,-8 5,-6 9,-11 14,-17 1,0 1,-1 1,-1 3,-3 5,-5 8,-8 2,-3 4,-6 6,-8 22,-26 43,-47 62,-62 19,-15 38,-23 56,-23 12,0 21,4 26,12 5,8 8,19 8,33 0,7 -1,14 -4,22 -2,8 -6,16 -9,24 -3,7 -7,14 -11,20 -4,7 -8,13 -11,18 -5,6 -9,12 -13,18 -4,5 -7,10 -11,15l2 1c8,-7 18,-18 31,-32 14,-14 28,-29 43,-45 5,-5 9,-9 14,-14 4,-4 9,-9 13,-13 17,-17 34,-31 50,-42 15,-11 29,-17 40,-17 10,0 17,3 22,10 6,8 9,15 10,24 1,1 1,3 1,4 0,2 0,3 0,5 0,14 -3,27 -9,39 -6,12 -12,23 -19,32 -1,2 -2,3 -3,5 -1,1 -2,3 -3,4 -21,28 -37,51 -47,68 -11,17 -16,29 -16,36 0,5 1,9 4,13 3,4 6,6 11,6 10,0 23,-6 39,-18 16,-12 32,-27 50,-45 1,-2 3,-4 5,-6 1,-2 3,-3 5,-5 19,-21 32,-35 37,-41 5,-7 8,-11 10,-12 1,0 1,0 2,0 1,0 2,0 2,1 0,1 1,1 1,2 0,0 0,1 0,1 0,1 0,1 0,2 0,0 -2,4 -8,11 -6,7 -13,15 -19,23 -1,0 -1,0 -2,1 0,0 0,1 -1,2 -6,6 -11,12 -16,17 -5,6 -9,10 -12,12 -20,21 -38,37 -55,48 -16,12 -30,18 -40,18 -14,0 -24,-6 -31,-17 -6,-12 -10,-26 -10,-42 0,-2 0,-4 0,-6 0,-2 1,-4 1,-5 2,-17 8,-34 18,-50 10,-16 20,-31 32,-46 12,-15 24,-29 34,-41 11,-13 16,-22 16,-28 0,-3 -1,-6 -3,-8 -2,-2 -6,-3 -10,-3 -10,0 -26,9 -48,28 -22,18 -44,40 -68,65 -5,5 -10,10 -15,16 -5,5 -10,10 -14,16 -22,24 -42,47 -60,69 -17,22 -29,37 -35,46zm575 -207c0,22 -11,41 -33,57 -23,16 -47,30 -73,40 -17,6 -32,12 -47,16 -15,4 -27,7 -38,9 0,5 -1,10 -2,16 -1,5 -1,10 -1,15 0,18 3,30 8,37 6,7 16,11 30,12 13,0 30,-5 53,-15 23,-11 49,-31 77,-58 18,-19 30,-32 36,-41 7,-9 11,-13 13,-13 1,0 2,1 3,1 1,1 2,3 2,5 0,1 -4,6 -12,15 -7,9 -16,19 -25,29 -2,2 -4,4 -6,6 -2,1 -3,3 -5,5 -3,3 -6,6 -8,8 -3,3 -6,5 -8,8 -14,12 -27,22 -39,31 -12,8 -23,14 -34,19 -9,3 -18,6 -26,8 -9,2 -18,3 -27,3 -24,0 -42,-10 -54,-28 -11,-19 -18,-40 -19,-63 0,-1 0,-2 0,-3 0,-2 0,-3 0,-4 0,-4 0,-7 0,-10 1,-3 1,-5 2,-8 0,-2 0,-4 0,-6 1,-1 1,-2 1,-3 0,-1 0,-1 0,-1 0,-1 0,-1 -1,-1 0,0 0,0 -1,1 0,0 0,0 -1,1 0,0 0,0 0,1 0,0 0,0 -1,0 -1,-1 -2,-1 -2,-2 0,0 -1,0 -1,0 0,-1 -1,-1 -1,-2 0,-1 -1,-2 -1,-3 0,0 2,-2 6,-6 3,-4 6,-9 10,-13 1,-1 1,-1 2,-1 0,-1 0,-1 1,-1 3,-3 6,-7 9,-10 2,-3 5,-5 7,-7 12,-13 24,-24 37,-34 13,-10 26,-19 38,-27 15,-9 30,-16 44,-20 14,-5 28,-7 41,-7 14,0 25,4 33,12 9,9 13,19 13,32zm-46 -33c-8,0 -16,2 -25,6 -9,4 -18,10 -27,17 -11,9 -22,19 -33,30 -10,11 -20,23 -28,36 -7,10 -13,19 -18,29 -5,9 -8,18 -10,26 9,-1 18,-3 27,-5 9,-3 19,-6 29,-11 25,-10 49,-25 71,-45 21,-20 32,-41 32,-66 0,-6 -1,-10 -5,-13 -3,-3 -7,-4 -13,-4z"/>
   <path class="fil0" d="M2794 3121l0 -2 2 2c5,-4 10,-8 15,-12 5,-4 10,-8 14,-12 8,-8 14,-15 20,-22 7,-6 12,-13 17,-19 8,-9 13,-15 16,-19 2,-3 4,-6 5,-7 1,0 1,0 2,0 0,0 1,0 1,0 1,0 2,1 2,1 1,1 2,3 2,5 0,1 -3,5 -10,13 -6,8 -14,16 -22,25 0,1 -1,2 -1,3 -1,1 -2,1 -2,2 -1,1 -1,1 -2,1 0,1 0,1 -1,2 -11,12 -22,23 -32,33 -10,10 -20,18 -31,25 -13,9 -27,16 -40,21 -13,5 -27,7 -42,7 -8,0 -15,0 -20,-1 -5,-1 -10,-2 -14,-5 -2,0 -3,-1 -4,-2 -1,0 -3,-1 -4,-2 -2,-2 -5,-5 -7,-8 -2,-4 -4,-7 -5,-12 -1,-2 -2,-4 -2,-6 0,-2 -1,-4 -1,-6 0,-8 2,-14 6,-19 4,-4 9,-7 17,-7 5,0 10,2 14,5 4,2 6,6 6,10 0,4 -1,8 -2,10 -1,2 -3,4 -5,5 -1,1 -3,3 -4,4 -1,2 -2,5 -2,9 0,4 1,8 4,10 2,3 6,4 12,4 2,0 5,-1 7,-1 3,-1 5,-2 7,-3 13,-6 25,-17 36,-34 11,-16 21,-33 28,-52 5,-11 8,-22 11,-33 3,-11 4,-20 4,-29 0,-22 0,-41 1,-58 1,-17 2,-26 5,-29l-2 -2c-3,2 -10,9 -21,21 -11,12 -23,25 -36,39 0,1 0,2 0,2 0,0 -1,1 -1,1 -10,11 -20,22 -29,33 -9,10 -16,18 -20,24 -2,1 -3,2 -4,3 -1,2 -1,2 -2,3 -1,1 -1,1 -1,1 -1,0 -1,0 -2,0 -1,0 -2,0 -3,-1 0,-1 -1,-2 -1,-3 0,-3 4,-8 11,-15 7,-8 17,-19 30,-36 4,-4 8,-10 14,-17 6,-6 11,-13 18,-19 0,-1 1,-2 2,-3 1,-1 2,-2 2,-2 11,-11 20,-21 29,-31 9,-9 14,-14 16,-14 0,0 1,-2 2,-5 2,-3 3,-6 6,-9 2,-4 5,-7 9,-10 4,-3 8,-4 13,-4 6,0 10,1 12,4 3,2 4,5 4,10 0,7 -3,13 -9,16 -7,4 -13,7 -21,10 -1,0 -2,1 -3,1 -2,0 -3,1 -4,1 -1,3 -1,5 -2,6 0,2 0,3 -1,5 0,1 0,3 0,5 -1,1 -1,3 -1,6 0,17 1,31 3,43 3,12 5,22 7,32 1,4 2,8 3,12 1,4 2,8 3,12 1,4 2,8 3,13 0,5 1,9 1,14 0,11 -3,22 -8,31 -5,9 -11,18 -18,26zm250 -293l55 -89 57 -4 -60 93 109 0c1,0 1,0 2,0 1,0 1,1 2,2 0,1 1,2 1,3 0,1 -1,3 -1,4 -1,1 -2,2 -4,2l-115 0c-7,11 -18,29 -34,54 -17,25 -34,51 -51,80 -2,3 -4,6 -6,8 -2,3 -3,5 -5,8 -21,33 -39,64 -56,93 -16,30 -24,50 -24,61 0,4 1,8 4,10 3,3 7,4 13,4 15,0 30,-6 46,-17 17,-12 35,-28 56,-49 24,-23 38,-39 45,-48 6,-9 10,-13 12,-13 2,0 4,1 4,1 1,1 1,3 1,5 0,1 -3,5 -9,12 -6,6 -12,14 -20,23 -1,0 -2,1 -3,2 -1,1 -1,2 -2,3 -3,3 -6,6 -8,9 -3,2 -5,5 -8,7 -28,28 -51,48 -69,59 -18,11 -33,17 -46,17 -15,-1 -26,-5 -32,-14 -7,-8 -11,-17 -12,-27 0,0 0,-1 0,-2 0,-1 0,-2 0,-2 0,-5 0,-10 1,-15 1,-5 1,-10 2,-14 5,-21 14,-43 29,-66 14,-23 32,-50 54,-81l-2 -2c-2,2 -4,5 -6,7 -2,3 -4,5 -7,8 0,0 -1,1 -2,2 0,0 0,1 0,2 -7,7 -13,13 -19,20 -6,7 -13,16 -22,26 -2,2 -4,4 -7,8 -3,3 -6,7 -9,10 0,0 -1,0 -1,1 0,0 -1,1 -3,4 -2,2 -5,6 -9,10 -4,4 -7,7 -7,7 -1,0 -2,-1 -3,-1 -1,-1 -2,-2 -2,-3 0,-2 2,-5 7,-10 4,-5 15,-18 33,-38 9,-11 21,-25 36,-42 15,-17 30,-36 46,-56 5,-7 10,-14 15,-20 5,-7 10,-13 15,-20 2,-4 5,-7 7,-11 3,-3 5,-7 8,-10l-34 0c-1,0 -3,-1 -3,-2 -1,-1 -1,-3 -1,-4 0,0 0,-1 0,-2 0,-1 1,-2 2,-2 0,0 1,-1 1,-1 0,0 13,0 39,0zm434 -72l48 -8 -197 334 2 2c7,-9 16,-20 29,-35 12,-14 25,-30 40,-46 8,-8 15,-15 23,-23 8,-7 15,-14 23,-21 15,-14 30,-25 44,-34 15,-10 28,-14 40,-14 12,0 21,5 26,14 5,10 8,21 8,34 0,12 -3,24 -10,37 -7,13 -15,26 -25,40 -3,3 -5,6 -7,9 -2,4 -5,7 -7,10 -13,17 -25,33 -35,48 -10,15 -15,28 -15,41 0,4 1,7 4,10 3,2 6,3 11,3 10,0 23,-5 40,-16 16,-10 39,-32 68,-64 18,-19 29,-32 33,-38 5,-5 7,-8 9,-9 0,0 1,0 1,0 1,0 2,0 2,1 1,1 1,1 2,2 0,0 0,1 0,1 0,1 0,1 0,1 0,0 0,1 0,2 -1,1 -3,4 -6,7 -3,4 -11,12 -23,26 -32,37 -58,63 -78,77 -20,14 -37,21 -51,21 -14,0 -24,-6 -31,-17 -6,-11 -9,-25 -9,-42 0,-19 5,-37 15,-53 11,-17 22,-33 35,-48 12,-15 24,-29 34,-41 10,-13 15,-24 15,-33 0,-3 -1,-6 -4,-8 -2,-3 -5,-4 -8,-4 -17,0 -55,28 -114,85 -59,56 -122,142 -188,257 -1,1 -1,2 -2,3 -1,1 -1,2 -2,3l-77 136 -62 4 27 -42 291 -473 -2 -2c-7,8 -14,17 -22,26 -7,9 -15,18 -23,27 0,1 -1,1 -1,1 0,1 -1,1 -1,2 -19,24 -37,46 -54,66 -17,20 -26,30 -27,30 -2,0 -3,-1 -4,-1 -1,-1 -1,-3 -1,-4 0,0 0,-1 0,-2 0,-1 3,-5 9,-11 6,-7 21,-24 45,-53 22,-27 40,-49 54,-66 13,-17 25,-32 36,-47 2,-1 3,-3 4,-5 2,-2 3,-3 4,-5 9,-13 18,-26 28,-41 10,-14 22,-32 36,-54zm221 406l-58 6c46,-75 82,-130 106,-164 24,-34 36,-57 36,-69 0,-4 -1,-7 -4,-9 -3,-3 -7,-4 -12,-4 -6,0 -15,3 -26,10 -12,6 -27,19 -46,38 -28,29 -46,49 -54,59 -8,10 -12,15 -14,15 -1,0 -3,0 -3,-1 -1,-1 -2,-2 -2,-4 0,-2 4,-7 13,-16 8,-10 17,-20 27,-31 2,-2 5,-5 7,-8 3,-3 5,-6 8,-8 19,-22 37,-38 52,-49 15,-11 29,-16 42,-16 12,0 21,4 27,13 6,9 9,19 9,30 0,8 -1,16 -5,25 -3,9 -6,19 -11,29 -2,5 -5,11 -8,17 -3,6 -6,12 -10,17 -4,8 -9,14 -13,21 -4,6 -8,12 -11,16l2 2c24,-29 47,-52 66,-69 20,-17 32,-32 36,-44 1,-1 2,-2 2,-4 1,-2 1,-3 2,-4 5,-13 12,-24 22,-34 9,-10 21,-15 35,-15 8,0 14,1 18,4 4,2 5,6 5,11 0,3 0,6 -2,9 -2,4 -4,7 -7,10 -5,6 -11,11 -19,17 -7,5 -15,11 -23,17 -14,9 -26,20 -37,32 -11,12 -16,26 -16,42 0,9 3,17 9,23 6,6 13,9 21,9 8,0 15,-2 22,-5 7,-3 14,-8 20,-14 11,-10 18,-19 23,-25 4,-7 8,-10 9,-10 2,0 3,0 4,1 1,1 2,2 2,4 0,1 -2,3 -5,7 -3,3 -6,7 -10,11 -1,2 -3,4 -4,6 -2,2 -4,3 -5,5 -4,5 -7,8 -11,11 -4,3 -8,6 -12,9 -6,3 -11,5 -17,7 -5,1 -11,2 -16,2 -10,0 -20,-3 -28,-10 -9,-6 -13,-15 -13,-26 0,-11 1,-20 5,-28 3,-9 7,-17 13,-24l-1 -2c-14,13 -27,27 -41,40 -13,14 -26,29 -40,45 -10,11 -20,23 -30,35 -9,13 -19,25 -29,38zm472 -207c0,22 -11,41 -33,57 -22,16 -46,30 -73,40 -16,6 -31,12 -46,16 -15,4 -28,7 -38,9 -1,5 -1,10 -2,16 -1,5 -2,10 -2,15 0,18 3,30 9,37 6,7 16,11 30,12 12,0 30,-5 53,-15 23,-11 48,-31 76,-58 18,-19 31,-32 37,-41 6,-9 11,-13 13,-13 1,0 2,1 3,1 1,1 1,3 1,5 0,1 -4,6 -11,15 -7,9 -16,19 -26,29 -2,2 -4,4 -5,6 -2,1 -4,3 -5,5 -3,3 -6,6 -9,8 -3,3 -5,5 -8,8 -13,12 -26,22 -38,31 -12,8 -24,14 -35,19 -8,3 -17,6 -26,8 -8,2 -17,3 -26,3 -24,0 -42,-10 -54,-28 -12,-19 -18,-40 -19,-63 0,-1 0,-2 0,-3 0,-2 0,-3 0,-4 0,-4 0,-7 0,-10 0,-3 1,-5 1,-8 0,-2 1,-4 1,-6 0,-1 0,-2 0,-3 0,-1 0,-1 0,-1 0,-1 0,-1 0,-1 0,0 -1,0 -1,1 0,0 -1,0 -1,1 0,0 0,0 0,1 0,0 -1,0 -1,0 -2,-1 -2,-1 -2,-2 -1,0 -1,0 -2,0 0,-1 0,-1 0,-2 -1,-1 -1,-2 -1,-3 0,0 2,-2 5,-6 3,-4 7,-9 11,-13 0,-1 1,-1 1,-1 0,-1 1,-1 1,-1 4,-3 6,-7 9,-10 3,-3 5,-5 7,-7 13,-13 25,-24 38,-34 12,-10 25,-19 38,-27 15,-9 29,-16 43,-20 15,-5 28,-7 41,-7 14,0 26,4 34,12 8,9 12,19 12,32zm-46 -33c-7,0 -15,2 -24,6 -9,4 -18,10 -28,17 -11,9 -22,19 -32,30 -10,11 -20,23 -29,36 -6,10 -12,19 -17,29 -5,9 -9,18 -10,26 8,-1 17,-3 26,-5 10,-3 19,-6 29,-11 26,-10 50,-25 71,-45 22,-20 33,-41 33,-66 0,-6 -2,-10 -5,-13 -3,-3 -8,-4 -14,-4zm303 240l-58 6c5,-8 13,-22 26,-41 12,-20 26,-41 40,-63 1,-2 2,-4 4,-6 1,-2 2,-4 3,-6 16,-25 30,-49 42,-71 12,-22 18,-37 18,-45 0,-5 -1,-8 -2,-10 -2,-2 -6,-3 -11,-4 0,0 -3,0 -8,-1 -5,0 -17,10 -37,29 -20,19 -41,41 -63,67 -4,4 -8,9 -12,14 -4,5 -8,10 -12,15 -20,24 -39,48 -55,70 -17,22 -28,38 -35,46l-60 6c45,-72 80,-127 105,-165 25,-38 37,-61 37,-68 0,-5 -1,-8 -3,-10 -3,-2 -6,-3 -11,-3 -11,0 -23,4 -36,13 -13,9 -26,20 -39,33 -2,3 -4,5 -6,7 -2,2 -4,5 -7,7 -21,23 -36,39 -43,48 -7,9 -11,14 -13,14 -2,0 -2,0 -3,-1 -1,-1 -1,-2 -2,-3 0,-1 0,-2 0,-3 0,0 5,-6 14,-17 10,-11 23,-26 41,-45 21,-24 40,-41 55,-50 16,-10 29,-14 40,-14 12,0 21,3 27,9 7,5 10,14 10,26 0,7 -1,15 -3,23 -3,8 -5,16 -8,24 -3,8 -7,15 -10,22 -4,7 -8,14 -11,20 -4,6 -8,13 -11,19 -4,6 -7,11 -10,17l2 2c7,-8 16,-19 27,-33 12,-14 24,-29 37,-44 5,-6 11,-12 16,-18 5,-6 11,-12 16,-17 14,-14 28,-26 41,-36 13,-9 25,-14 35,-14 10,0 19,3 24,10 6,6 8,17 8,31 0,5 0,10 -1,15 0,5 -1,10 -3,15 -3,10 -6,20 -11,30 -5,9 -9,19 -14,28 -3,6 -6,11 -9,16 -3,4 -5,9 -8,13l2 2c7,-8 16,-18 27,-32 12,-14 24,-28 37,-43 6,-7 12,-13 18,-20 6,-6 13,-12 19,-18 14,-14 28,-25 41,-34 13,-9 25,-13 36,-13 8,0 16,4 22,11 7,7 10,19 10,36 0,9 -2,19 -6,29 -4,10 -9,20 -15,30 -4,6 -8,12 -13,19 -4,6 -9,12 -13,18 -11,16 -22,30 -31,44 -10,14 -15,27 -16,38 0,1 0,2 0,2 0,0 0,1 0,4 0,2 1,5 4,9 3,4 6,6 10,6 9,0 21,-6 36,-17 15,-11 31,-25 49,-42 27,-29 44,-48 50,-55 6,-7 10,-11 11,-12 1,0 2,0 2,0 1,0 2,0 3,1 1,1 1,2 1,4 0,1 -4,7 -12,16 -9,10 -18,19 -28,30 0,0 -1,1 -1,2 0,0 -1,1 -2,1 -1,1 -3,3 -5,5 -1,2 -3,4 -5,6 -23,24 -42,42 -58,54 -16,12 -30,18 -43,18 -14,0 -24,-6 -30,-17 -7,-11 -10,-25 -10,-42 0,-20 5,-39 15,-56 10,-18 22,-34 34,-50 12,-15 23,-29 34,-41 10,-13 15,-23 15,-32 0,0 0,-1 0,-1 0,0 0,-1 -1,-2 0,-1 -1,-2 -3,-3 -2,-1 -4,-2 -8,-2 -12,0 -27,8 -47,25 -19,17 -39,37 -60,61 -5,6 -11,12 -16,18 -6,7 -11,13 -16,19 -21,25 -40,49 -56,71 -17,22 -28,38 -34,46zm433 -247l58 -4c-55,91 -90,149 -105,174 -16,25 -23,42 -23,52 0,8 1,13 5,15 3,3 6,4 11,5 0,0 1,0 1,0 8,0 16,-3 25,-7 10,-5 19,-10 28,-17 7,-5 13,-10 20,-16 6,-5 12,-10 17,-16 3,-2 5,-4 7,-7 2,-2 4,-4 6,-6 3,-2 5,-4 7,-7 2,-2 4,-4 7,-7 1,-1 1,-2 2,-3 1,-1 2,-2 4,-3 9,-10 17,-20 24,-28 8,-9 12,-13 12,-13 2,0 3,1 4,1 1,1 2,2 2,4 0,1 -4,7 -13,18 -9,11 -24,26 -43,47 -23,23 -44,41 -62,53 -19,12 -35,18 -47,18 -15,0 -26,-5 -33,-14 -8,-9 -12,-21 -12,-34 0,-2 0,-4 0,-5 0,-2 0,-4 1,-5 2,-20 8,-40 19,-59 10,-20 22,-38 35,-56 5,-9 11,-17 17,-25 6,-7 11,-15 16,-22l-2 -2c-5,6 -14,15 -27,28 -12,13 -29,32 -51,57 -4,4 -7,7 -8,9 -2,1 -3,2 -4,3 0,0 -1,0 -1,0 0,0 -1,0 -1,0 -1,0 -2,-1 -2,-2 -1,-1 -1,-2 -1,-4 0,-1 2,-3 5,-7 3,-4 11,-12 23,-26 5,-5 10,-11 15,-17 6,-7 12,-13 18,-20 9,-10 18,-19 27,-29 8,-9 15,-17 19,-23zm91 -150c0,-2 0,-3 0,-4 0,-1 0,-2 1,-4 2,-6 5,-13 10,-19 6,-5 13,-8 21,-8 7,0 12,2 16,7 4,4 5,10 5,17 0,1 0,2 0,3 0,2 0,3 -1,4 -1,7 -5,13 -10,19 -5,6 -12,9 -21,9 -6,0 -11,-3 -15,-7 -4,-5 -6,-10 -6,-17z"/>
   <path class="fil0" d="M5081 2915l52 -4c-50,79 -84,132 -102,157 -18,26 -29,46 -31,61 0,2 0,4 -1,6 0,1 0,4 0,6 0,5 1,9 4,11 3,3 6,4 10,5 0,0 1,0 2,0 13,0 30,-9 51,-27 22,-18 45,-40 69,-67 10,-11 20,-23 30,-36 10,-12 20,-25 29,-38 9,-13 18,-25 27,-38 8,-13 16,-25 23,-36l60 -4c-5,9 -15,23 -27,41 -13,18 -26,37 -40,58 -2,2 -4,5 -6,7 -2,3 -4,5 -6,8 -16,24 -30,46 -43,68 -12,22 -18,38 -18,48 0,5 1,9 3,12 3,2 7,4 12,4 7,0 18,-5 33,-15 14,-10 33,-26 54,-49 26,-26 42,-43 48,-50 6,-7 9,-11 11,-12 1,0 2,0 2,0 1,0 2,0 2,1 1,1 2,2 2,4 0,1 -3,5 -10,13 -6,7 -14,15 -22,25 -1,0 -2,1 -2,1 0,0 0,1 0,1 -4,4 -8,8 -11,11 -3,4 -7,8 -10,11 -24,24 -44,41 -59,53 -16,11 -30,17 -42,17 -12,0 -21,-4 -26,-12 -6,-8 -10,-17 -11,-26 -1,-4 -1,-7 -2,-11 0,-4 0,-7 0,-10 0,-7 0,-13 2,-19 1,-6 2,-12 4,-16l-2 -2c-5,5 -10,11 -17,18 -7,8 -14,15 -22,23 -7,7 -13,14 -21,20 -7,6 -14,12 -22,17 -7,5 -15,9 -23,13 -7,3 -14,5 -21,5 -15,0 -26,-5 -33,-15 -6,-10 -10,-22 -10,-35 0,-25 7,-48 19,-68 13,-21 27,-41 41,-60 6,-8 13,-16 19,-23 6,-8 11,-15 16,-23l-1 -2c-8,6 -16,13 -24,21 -8,8 -16,16 -24,25 -4,2 -6,5 -9,7 -2,3 -5,6 -7,8 -4,5 -7,9 -11,12 -3,4 -7,8 -10,11 -5,6 -8,10 -10,12 -2,2 -3,3 -4,4 -1,0 -2,0 -2,0 -1,0 -2,0 -3,-1 -1,-1 -1,-3 -1,-4 0,-2 3,-5 8,-11 5,-6 18,-20 39,-42 10,-10 20,-21 33,-32 12,-12 26,-25 41,-37zm478 247l-58 6c4,-8 13,-22 25,-41 13,-20 26,-41 41,-63 1,-2 2,-4 3,-6 2,-2 3,-4 4,-6 15,-25 29,-49 42,-71 12,-22 18,-37 18,-45 0,-5 -1,-8 -3,-10 -1,-2 -5,-3 -10,-4 0,0 -3,0 -8,-1 -5,0 -17,10 -37,29 -20,19 -41,41 -63,67 -4,4 -8,9 -12,14 -4,5 -8,10 -12,15 -20,24 -39,48 -55,70 -17,22 -29,38 -35,46l-60 6c45,-72 80,-127 105,-165 24,-38 37,-61 37,-68 0,-5 -1,-8 -4,-10 -2,-2 -5,-3 -10,-3 -11,0 -23,4 -36,13 -13,9 -26,20 -39,33 -2,3 -4,5 -6,7 -2,2 -5,5 -7,7 -22,23 -36,39 -43,48 -7,9 -12,14 -13,14 -2,0 -3,0 -3,-1 -1,-1 -1,-2 -2,-3 0,-1 0,-2 0,-3 0,0 5,-6 14,-17 10,-11 23,-26 40,-45 22,-24 41,-41 56,-50 15,-10 29,-14 40,-14 11,0 21,3 27,9 6,5 10,14 10,26 0,7 -1,15 -4,23 -2,8 -4,16 -7,24 -3,8 -7,15 -11,22 -3,7 -7,14 -11,20 -3,6 -7,13 -10,19 -4,6 -7,11 -10,17l2 2c7,-8 16,-19 27,-33 12,-14 24,-29 37,-44 5,-6 11,-12 16,-18 5,-6 10,-12 16,-17 14,-14 28,-26 41,-36 13,-9 24,-14 35,-14 10,0 18,3 24,10 5,6 8,17 8,31 0,5 0,10 -1,15 0,5 -2,10 -3,15 -3,10 -6,20 -11,30 -5,9 -9,19 -14,28 -3,6 -6,11 -9,16 -3,4 -6,9 -8,13l2 2c7,-8 16,-18 27,-32 11,-14 24,-28 37,-43 6,-7 12,-13 18,-20 6,-6 12,-12 19,-18 14,-14 27,-25 41,-34 13,-9 25,-13 35,-13 9,0 17,4 23,11 6,7 10,19 10,36 0,9 -2,19 -6,29 -4,10 -9,20 -16,30 -3,6 -7,12 -12,19 -5,6 -9,12 -13,18 -12,16 -22,30 -31,44 -10,14 -15,27 -17,38 0,1 0,2 0,2 0,0 0,1 0,4 0,2 2,5 5,9 2,4 6,6 10,6 9,0 21,-6 36,-17 15,-11 31,-25 48,-42 28,-29 45,-48 51,-55 6,-7 9,-11 11,-12 1,0 2,0 2,0 1,0 2,0 2,1 1,1 2,2 2,4 0,1 -4,7 -13,16 -8,10 -17,19 -27,30 -1,0 -1,1 -1,2 -1,0 -1,1 -2,1 -2,1 -3,3 -5,5 -1,2 -3,4 -5,6 -23,24 -42,42 -58,54 -16,12 -31,18 -44,18 -13,0 -23,-6 -30,-17 -6,-11 -9,-25 -9,-42 0,-20 5,-39 15,-56 10,-18 21,-34 34,-50 12,-15 23,-29 33,-41 11,-13 16,-23 16,-32 0,0 0,-1 0,-1 0,0 0,-1 -1,-2 0,-1 -1,-2 -3,-3 -2,-1 -5,-2 -8,-2 -12,0 -28,8 -47,25 -19,17 -40,37 -61,61 -5,6 -10,12 -15,18 -6,7 -11,13 -16,19 -21,25 -40,49 -56,71 -17,22 -28,38 -34,46zm789 -542l59 -10c-113,190 -191,320 -233,391 -43,72 -64,116 -64,132 0,7 2,12 4,17 3,4 9,7 18,7 6,0 12,-1 18,-2 5,-1 11,-3 18,-5 30,-10 59,-32 84,-66 25,-34 38,-75 38,-122 0,-18 1,-30 5,-39 3,-8 11,-12 22,-12 8,0 14,4 18,11 3,7 5,15 5,24 0,6 -1,11 -2,17 -1,6 -2,12 -4,18 -4,11 -8,22 -14,34 -5,11 -11,22 -17,32 -7,9 -12,17 -18,25 -5,7 -10,13 -14,17 1,1 3,1 4,1 2,0 3,0 5,0 3,0 7,0 11,-1 3,0 7,-1 11,-3 11,-3 21,-7 31,-14 10,-6 19,-14 26,-22 7,-8 12,-13 14,-15 2,-2 3,-3 5,-4 0,0 1,0 1,0 1,0 2,0 3,1 1,1 1,2 1,4 0,1 -1,4 -4,7 -3,2 -7,7 -12,12 -9,11 -19,19 -30,26 -11,8 -23,13 -34,16 -6,2 -11,3 -17,3 -5,1 -10,1 -15,1 -1,0 -2,0 -3,0 -2,0 -3,0 -3,-1 -1,0 -2,0 -3,0 -1,0 -2,1 -4,3 -2,2 -5,5 -11,10 -6,5 -12,10 -19,16 -13,9 -26,17 -41,25 -15,7 -30,12 -45,13 -1,1 -3,1 -4,1 -2,0 -3,0 -5,0 -19,0 -33,-6 -41,-19 -9,-12 -13,-27 -13,-46 0,-7 1,-15 3,-22 2,-7 4,-15 8,-23 4,-10 9,-20 15,-29 5,-10 11,-19 18,-28 11,-16 21,-29 30,-41 9,-11 14,-18 14,-21 0,0 0,-1 -1,-1 0,0 0,0 -1,0 -1,0 -6,4 -13,13 -7,8 -18,21 -34,38 -23,25 -37,41 -43,48 -5,7 -9,11 -11,12 -1,0 -1,0 -2,0 0,0 -1,-1 -2,-2 -1,-1 -1,-1 -1,-2 0,-1 4,-7 13,-18 9,-11 19,-22 30,-35 0,0 0,-1 1,-1 1,-1 3,-3 8,-9 4,-6 11,-13 19,-22 9,-9 14,-16 17,-19 13,-14 33,-43 62,-88 28,-45 59,-95 91,-149 3,-6 6,-13 10,-19 4,-6 7,-12 11,-19 5,-8 10,-15 14,-23 4,-8 9,-15 13,-23zm100 542l-58 6c46,-75 82,-130 106,-164 24,-34 36,-57 36,-69 0,-4 -1,-7 -4,-9 -3,-3 -7,-4 -12,-4 -6,0 -15,3 -27,10 -11,6 -26,19 -45,38 -28,29 -46,49 -54,59 -8,10 -12,15 -14,15 -2,0 -3,0 -4,-1 0,-1 -1,-2 -1,-4 0,-2 4,-7 13,-16 8,-10 17,-20 27,-31 2,-2 5,-5 7,-8 3,-3 5,-6 8,-8 19,-22 37,-38 52,-49 15,-11 29,-16 42,-16 12,0 21,4 27,13 6,9 9,19 9,30 0,8 -2,16 -5,25 -3,9 -6,19 -11,29 -2,5 -5,11 -8,17 -3,6 -7,12 -10,17 -5,8 -9,14 -13,21 -4,6 -8,12 -11,16l2 2c24,-29 46,-52 66,-69 20,-17 32,-32 36,-44 1,-1 1,-2 2,-4 1,-2 1,-3 2,-4 5,-13 12,-24 22,-34 9,-10 21,-15 35,-15 8,0 14,1 18,4 4,2 5,6 5,11 0,3 -1,6 -2,9 -2,4 -4,7 -7,10 -5,6 -11,11 -19,17 -8,5 -15,11 -23,17 -14,9 -26,20 -37,32 -11,12 -16,26 -16,42 0,9 3,17 9,23 6,6 13,9 21,9 8,0 15,-2 22,-5 7,-3 14,-8 20,-14 10,-10 18,-19 23,-25 4,-7 8,-10 9,-10 2,0 3,0 4,1 1,1 2,2 2,4 0,1 -2,3 -5,7 -3,3 -6,7 -10,11 -1,2 -3,4 -4,6 -2,2 -4,3 -5,5 -4,5 -8,8 -11,11 -4,3 -8,6 -12,9 -6,3 -11,5 -17,7 -5,1 -11,2 -17,2 -9,0 -19,-3 -27,-10 -9,-6 -13,-15 -13,-26 0,-11 1,-20 4,-28 4,-9 8,-17 14,-24l-2 -2c-13,13 -27,27 -40,40 -13,14 -26,29 -40,45 -10,11 -20,23 -30,35 -9,13 -19,25 -29,38zm525 -245l45 -2c-5,7 -14,19 -26,37 -12,18 -25,37 -38,58 -2,3 -4,6 -6,9 -3,4 -5,7 -6,11 -16,24 -29,47 -41,69 -11,22 -17,37 -17,45 0,4 1,7 3,9 3,3 7,4 13,4 14,0 33,-11 56,-32 24,-21 49,-48 76,-79 5,-6 8,-10 10,-12 1,-2 3,-3 4,-3 1,0 2,0 3,1 1,1 2,1 2,3 0,0 1,0 1,0 0,0 0,1 0,2 0,0 -4,5 -11,13 -7,8 -15,17 -24,26 0,1 -1,1 -1,2 0,0 -1,1 -2,2 -2,2 -3,4 -6,7 -2,3 -5,5 -7,8 -22,22 -41,40 -59,53 -18,13 -32,20 -45,20 -12,0 -22,-4 -29,-13 -8,-9 -11,-26 -11,-51 0,-2 0,-3 0,-5 0,-2 0,-3 0,-4 0,-1 0,-3 0,-4 0,-1 0,-2 0,-4 -4,5 -9,10 -14,15 -6,6 -12,12 -19,18 -5,4 -10,9 -16,14 -5,5 -11,9 -16,13 -9,6 -17,11 -26,15 -8,4 -16,6 -23,6 -23,0 -38,-9 -46,-26 -8,-17 -12,-35 -12,-56 0,0 0,-1 0,-1 0,0 0,-1 0,-1 0,-4 0,-8 0,-11 0,-4 0,-8 0,-11 1,-4 2,-7 2,-11 1,-3 2,-7 2,-11 0,0 -1,0 -1,1 -1,0 -1,0 -2,0 0,1 -1,1 -1,2 0,0 -1,0 -1,0 -1,0 -2,0 -2,-1 -1,-1 -1,-1 -2,-2 0,0 0,-1 0,-1 0,0 0,-1 0,-1 0,0 0,-1 0,-1 1,-2 2,-3 4,-6 2,-2 6,-6 11,-12 17,-21 37,-40 59,-57 22,-17 45,-30 68,-39 11,-4 21,-7 31,-9 10,-2 20,-3 30,-3 14,0 25,4 31,13 6,9 9,20 9,32 0,5 0,10 0,14 -1,4 -1,8 -3,11l2 2c11,-17 18,-29 23,-38 4,-9 9,-16 12,-20 2,-3 4,-5 7,-6 2,-1 5,-2 9,-2zm-251 210c0,9 1,16 5,21 3,6 8,9 16,9 9,0 20,-4 33,-11 12,-8 25,-18 38,-30 12,-11 24,-23 36,-37 12,-14 22,-28 31,-42 10,-15 17,-30 23,-44 5,-14 8,-27 8,-38 0,-9 -2,-17 -7,-23 -5,-7 -12,-10 -22,-10 -4,0 -8,0 -13,1 -5,1 -9,3 -14,4 -21,9 -40,24 -60,46 -19,21 -35,44 -48,69 -8,16 -15,31 -20,46 -4,15 -6,28 -6,39zm393 35l-62 6c5,-8 14,-22 28,-42 14,-20 29,-42 45,-65 1,-2 2,-3 3,-4 1,-1 2,-3 3,-4 18,-26 34,-50 48,-72 14,-23 21,-38 21,-45 0,-5 -1,-9 -4,-11 -3,-2 -6,-3 -9,-3 -1,0 -2,0 -2,0 -1,0 -4,0 -10,0 -7,1 -17,6 -31,17 -14,12 -33,29 -55,54 -20,22 -32,35 -37,41 -5,6 -8,9 -9,10 0,0 -1,0 -2,0 0,0 -1,0 -2,-1 -1,-1 -1,-3 -1,-5 0,0 2,-3 6,-8 4,-6 9,-11 14,-17 1,0 1,-1 1,-1 2,-3 5,-5 7,-8 3,-3 5,-6 7,-8 22,-26 43,-47 62,-62 19,-15 37,-23 55,-23 13,0 21,4 27,12 5,8 7,19 7,33 0,7 -1,14 -3,22 -3,8 -6,16 -10,24 -3,7 -6,14 -10,20 -4,7 -8,13 -12,18 -4,6 -8,12 -12,18 -4,5 -8,10 -11,15l2 1c7,-7 18,-18 31,-32 13,-14 28,-29 43,-45 4,-5 9,-9 13,-14 5,-4 10,-9 14,-13 17,-17 34,-31 49,-42 16,-11 29,-17 41,-17 9,0 17,3 22,10 5,8 9,15 10,24 0,1 1,3 1,4 0,2 0,3 0,5 0,14 -3,27 -9,39 -6,12 -12,23 -19,32 -1,2 -2,3 -3,5 -1,1 -2,3 -3,4 -21,28 -37,51 -48,68 -10,17 -15,29 -15,36 0,5 1,9 4,13 3,4 6,6 11,6 9,0 22,-6 38,-18 16,-12 33,-27 50,-45 2,-2 4,-4 5,-6 2,-2 4,-3 5,-5 20,-21 32,-35 37,-41 5,-7 9,-11 11,-12 0,0 1,0 1,0 2,0 2,0 3,1 0,1 1,1 1,2 0,0 0,1 0,1 0,1 0,1 0,2 0,0 -3,4 -9,11 -6,7 -12,15 -19,23 0,0 -1,0 -1,1 0,0 -1,1 -1,2 -6,6 -11,12 -17,17 -5,6 -9,10 -11,12 -20,21 -39,37 -55,48 -16,12 -30,18 -40,18 -14,0 -24,-6 -31,-17 -7,-12 -10,-26 -10,-42 0,-2 0,-4 0,-6 0,-2 0,-4 1,-5 2,-17 8,-34 17,-50 10,-16 21,-31 33,-46 12,-15 24,-29 34,-41 11,-13 16,-22 16,-28 0,-3 -1,-6 -3,-8 -3,-2 -6,-3 -10,-3 -11,0 -27,9 -48,28 -22,18 -45,40 -69,65 -5,5 -10,10 -14,16 -5,5 -10,10 -14,16 -23,24 -42,47 -60,69 -18,22 -29,37 -36,46z"/>
   <path class="fil0" d="M7694 2972l203 -360 54 -2c-3,6 -6,11 -9,16 -2,6 -5,11 -8,17 -70,123 -134,232 -191,327 -58,95 -87,151 -87,169 0,6 1,10 4,13 2,3 6,5 12,5 7,0 17,-4 29,-13 13,-8 29,-22 48,-41 25,-24 42,-42 52,-54 10,-13 15,-19 16,-19 1,0 3,0 4,1 1,1 2,2 2,3 0,1 -2,4 -5,9 -4,4 -9,10 -15,17 -32,37 -60,65 -81,82 -22,17 -42,26 -59,26 -11,0 -19,-5 -25,-14 -6,-9 -9,-21 -9,-35 0,-6 0,-12 1,-17 1,-5 2,-10 3,-15 1,-1 1,-2 2,-3 0,-1 0,-2 0,-3l-2 -2c-3,5 -7,10 -12,16 -5,6 -10,12 -16,18 -9,11 -20,21 -33,30 -12,9 -24,16 -37,20 -4,1 -8,3 -13,3 -4,1 -8,2 -13,2 -16,0 -28,-7 -36,-21 -9,-14 -14,-29 -15,-46 0,-3 -1,-6 -1,-8 0,-3 0,-6 0,-9 0,-4 0,-8 0,-11 0,-4 0,-8 1,-11 0,-4 0,-8 0,-12 1,-3 2,-7 2,-11 -1,1 -2,1 -2,2 0,0 -1,0 -1,1 0,0 -1,0 -1,1 -1,1 -1,1 -2,1 0,0 0,0 -1,0 -1,-1 -1,-1 -2,-2 -1,-1 -1,-2 -1,-4 0,0 1,-2 4,-6 2,-4 10,-13 24,-29 23,-26 49,-48 76,-66 28,-18 55,-28 84,-31 2,0 4,-1 6,-1 2,0 4,0 7,0 11,0 22,4 30,10 9,7 13,18 13,32 0,4 0,8 0,12 0,4 0,8 -2,11l2 2zm-11 -20c0,-11 -2,-19 -5,-26 -4,-6 -11,-10 -22,-10 -8,0 -18,3 -27,7 -10,5 -20,11 -30,18 -19,15 -37,34 -54,58 -17,23 -30,47 -39,73 -4,10 -7,21 -9,31 -2,10 -3,20 -3,29 0,8 2,15 6,19 4,4 10,6 19,6 8,0 19,-4 32,-12 14,-8 27,-19 41,-33 13,-13 26,-27 39,-44 13,-16 24,-33 33,-50 6,-12 11,-23 14,-34 3,-11 5,-22 5,-32zm247 169l0 -2 2 2c5,-4 11,-8 16,-12 5,-4 9,-8 13,-12 8,-8 15,-15 21,-22 6,-6 11,-13 16,-19 8,-9 14,-15 16,-19 3,-3 4,-6 6,-7 0,0 1,0 1,0 0,0 1,0 1,0 1,0 2,1 3,1 1,1 1,3 1,5 0,1 -3,5 -10,13 -6,8 -13,16 -21,25 -1,1 -2,2 -2,3 -1,1 -1,1 -2,2 -1,1 -1,1 -1,1 -1,1 -1,1 -2,2 -11,12 -21,23 -32,33 -10,10 -20,18 -31,25 -13,9 -27,16 -40,21 -13,5 -27,7 -42,7 -8,0 -15,0 -20,-1 -5,-1 -10,-2 -14,-5 -1,0 -3,-1 -4,-2 -1,0 -2,-1 -4,-2 -2,-2 -4,-5 -6,-8 -3,-4 -4,-7 -6,-12 -1,-2 -2,-4 -2,-6 0,-2 0,-4 0,-6 0,-8 2,-14 5,-19 4,-4 10,-7 18,-7 5,0 9,2 13,5 4,2 6,6 6,10 0,4 0,8 -2,10 -1,2 -2,4 -4,5 -2,1 -4,3 -5,4 -1,2 -2,5 -2,9 0,4 2,8 4,10 2,3 6,4 12,4 2,0 5,-1 7,-1 3,-1 5,-2 8,-3 12,-6 24,-17 35,-34 12,-16 21,-33 29,-52 4,-11 7,-22 10,-33 3,-11 4,-20 4,-29 0,-22 1,-41 1,-58 1,-17 2,-26 5,-29l-2 -2c-3,2 -10,9 -21,21 -11,12 -22,25 -35,39 0,1 0,2 -1,2 0,0 -1,1 -1,1 -10,11 -19,22 -28,33 -9,10 -16,18 -21,24 -1,1 -2,2 -3,3 -1,2 -2,2 -3,3 0,1 -1,1 -1,1 0,0 -1,0 -1,0 -2,0 -3,0 -3,-1 -1,-1 -1,-2 -1,-3 0,-3 3,-8 10,-15 8,-8 18,-19 30,-36 4,-4 9,-10 14,-17 6,-6 12,-13 18,-19 1,-1 1,-2 2,-3 1,-1 2,-2 3,-2 10,-11 20,-21 28,-31 9,-9 14,-14 16,-14 1,0 1,-2 3,-5 1,-3 3,-6 5,-9 3,-4 6,-7 9,-10 4,-3 9,-4 13,-4 6,0 10,1 12,4 3,2 4,5 4,10 0,7 -3,13 -9,16 -6,4 -13,7 -20,10 -2,0 -3,1 -4,1 -1,0 -3,1 -4,1 0,3 -1,5 -1,6 -1,2 -1,3 -2,5 0,1 0,3 0,5 0,1 -1,3 -1,6 0,17 2,31 4,43 2,12 4,22 7,32 0,4 1,8 2,12 2,4 3,8 3,12 1,4 2,8 3,13 1,5 1,9 1,14 0,11 -3,22 -8,31 -4,9 -11,18 -18,26z"/>
  </g>
 </g>
</svg>
